<svg viewBox="606.4688 823.9542 190.0001 175.0759" width="5000" height="4607.258101443104" xmlns="http://www.w3.org/2000/svg" xmlns:xlink="http://www.w3.org/1999/xlink" preserveAspectRatio="none"><defs></defs><style>.a6izo4zJpcolor {fill:#EBE7D9;fill-opacity:1;}.aD6z1nYkhcolor {fill:#EBE7D9;fill-opacity:1;}.aLgOaV3zRcolors-0 {fill:#FFF5D0;fill-opacity:1;}.aLgOaV3zRcolors-1 {fill:#BA3521;fill-opacity:1;}.aLgOaV3zRcolors-2 {fill:#F55139;fill-opacity:1;}.aLgOaV3zRcolors-3 {fill:#21303A;fill-opacity:1;}.aLgOaV3zRcolors-4 {fill:#51819E;fill-opacity:1;}.aLgOaV3zRcolors-5 {fill:#064B75;fill-opacity:1;}.aLgOaV3zRcolors-6 {fill:#ACA58C;fill-opacity:1;}.aLgOaV3zRcolors-7 {fill:#3E5563;fill-opacity:1;}.icon3-str {stroke:#F55139;stroke-opacity:1;}</style><g opacity="1" transform="rotate(0 768.0456 915.6768)">
<svg width="10.0657" height="11.7032" x="768.0456" y="915.6768" version="1.1" preserveAspectRatio="none" viewBox="4.2 -28 24.08 28">
  <g transform="matrix(1 0 0 1 0 0)" class="a6izo4zJpcolor"><path id="id-6izo4zJp1" d="M23.04-14.52Q25.48-13.84 26.88-12.06Q28.28-10.28 28.28-7.56L28.28-7.56Q28.28-3.92 25.54-1.96Q22.80 0 17.56 0L17.56 0L4.20 0L4.20-28L16.76-28Q21.56-28 24.18-26.08Q26.80-24.16 26.80-20.76L26.80-20.76Q26.80-18.56 25.78-16.96Q24.76-15.36 23.04-14.52L23.04-14.52ZM16.40-24.76L8.20-24.76L8.20-15.80L16.40-15.80Q19.48-15.80 21.14-16.94Q22.80-18.08 22.80-20.28L22.80-20.28Q22.80-22.48 21.14-23.62Q19.48-24.76 16.40-24.76L16.40-24.76ZM17.40-3.24Q20.80-3.24 22.52-4.36Q24.24-5.48 24.24-7.88L24.24-7.88Q24.24-12.56 17.40-12.56L17.40-12.56L8.20-12.56L8.20-3.24L17.40-3.24Z"/></g>
</svg>
</g><g opacity="1" transform="rotate(0 614.8458 895.6043)">
<svg width="34.4541" height="31.7757" x="614.8458" y="895.6043" version="1.1" preserveAspectRatio="none" viewBox="-0.2 -28 30.36 28">
  <g transform="matrix(1 0 0 1 0 0)" class="aD6z1nYkhcolor"><path id="id-D6z1nYkh1" d="M24.72 0L21.92-6.48L7.92-6.48L5.16 0L-0.20 0L12.40-28L17.52-28L30.16 0L24.72 0ZM9.68-10.56L20.20-10.56L14.92-22.80L9.68-10.56Z"/></g>
</svg>
</g><g opacity="1" transform="rotate(0 606.4688 823.9542)">
<svg width="190.0001" height="175.0759" x="606.4688" y="823.9542" version="1.1" preserveAspectRatio="none" viewBox="19.999217987060547 27 160.0006103515625 147.43299865722656">
  <g transform="matrix(1 0 0 1 0 0)" ><g><path d="M35.731 138.136l11.749 20.351a31.89 31.89 0 0 0 27.618 15.946h24.443l-42.26-73.939-21.55 37.642z" data-color="1" class="aLgOaV3zRcolors-0"></path><path d="M163.509 63.103l-42.694 74.254 43.227.106 11.418-19.776a33.884 33.884 0 0 0 .001-33.883l-11.952-20.701z" data-color="1" class="aLgOaV3zRcolors-0"></path><path d="M45.178 46.957l-10.162 17.6 86.228-.042-21.782-37.489H79.699a39.863 39.863 0 0 0-34.521 19.931z" data-color="1" class="aLgOaV3zRcolors-0"></path><path d="M34.938 64.189L25.34 80.814a39.862 39.862 0 0 0 0 39.863l10.309 17.855 42.592-74.37-43.303.027z" data-color="1" class="aLgOaV3zRcolors-0"></path><path d="M99.685 174.433h19.691c14.241 0 27.4-7.597 34.521-19.93l10.071-17.442-85.746-.116 21.463 37.488z" data-color="1" class="aLgOaV3zRcolors-0"></path><path opacity=".4" d="M35.731 138.136l11.749 20.351a31.89 31.89 0 0 0 27.618 15.946h24.443l-42.26-73.939-21.55 37.642z" data-color="2" class="aLgOaV3zRcolors-1"></path><path d="M99.537 27l42.522 74.082 21.554-37.642-9.531-16.509A39.862 39.862 0 0 0 119.56 27H99.537z" data-color="2" class="aLgOaV3zRcolors-1"></path><path opacity=".8" d="M163.509 63.103l-42.694 74.254 43.227.106 11.418-19.776a33.884 33.884 0 0 0 .001-33.883l-11.952-20.701z" data-color="2" class="aLgOaV3zRcolors-1"></path><path opacity=".2" d="M34.938 64.189L25.34 80.814a39.862 39.862 0 0 0 0 39.863l10.309 17.855 42.592-74.37-43.303.027z" data-color="2" class="aLgOaV3zRcolors-1"></path><path opacity=".6" d="M99.685 174.433h19.691c14.241 0 27.4-7.597 34.521-19.93l10.071-17.442-85.746-.116 21.463 37.488z" data-color="2" class="aLgOaV3zRcolors-1"></path></g></g>
</svg>
</g></svg>